# xmcd
#
# Track frame offsets:
#	150
#	11512
#	23137
#	34281
#	46441
#	57244
#	69815
#	81821
#	90464
#	100569
#	112617
#	123900
#	134066
#	145021
#	154764
#	164830
#	175380
#	186652
#	197465
#	207354
#
# Disc length: 2911 seconds
#
# Revision: 1
# Processed by: cddbd v1.5.2PL0 Copyright (c) Steve Scherf et al.
# Submitted via: EZCDAudioConverter 3.1.7.1
#
DISCID=0e0b5d14
DTITLE=Various Artist - 100 Hits: Northern Soul [CD4]
DYEAR=1970
DGENRE=Soul
TTITLE0=Gerri Granger - I Go To Pieces (Everytime...)
TTITLE1=The Metros - Since I Found My Baby
TTITLE2=Morris Chestnut - Too Darn Soulfu
TTITLE3=The Van Dykes - Save My Love For A Rainy Day
TTITLE4=The Seven Souls - I Still Love You
TTITLE5=The Exciters - Blowing Up My Mind
TTITLE6=Peggy March - If You Loved Me
TTITLE7=Billy Thompson - Black Eyed Girl
TTITLE8=Erma Franklin - Gotta Find Me A Lover
TTITLE9=The Insiders - I'm Just A Man
TTITLE10=Tyrone Davis - One Way Ticket
TTITLE11=Marvin Smith - Have More Time
TTITLE12=Johnny Moore - Walk Like A Man
TTITLE13=Billy Butler - Burning Touch Of Love
TTITLE14=Ketty Lester - Some Things Are Better Left Unsaid
TTITLE15=Major Lance - Ain't No Sou (Left In These Old Shoes)
TTITLE16=The Cooperettes - Shing-A-Ling
TTITLE17=The Spellbinders - Help Me (Give Myself Back Together Again)
TTITLE18=The Vibrations - Gonna Get Along Without You Now
TTITLE19=Willie Kendrick - You Can't Bypass Love
EXTD=
EXTT0=
EXTT1=
EXTT2=
EXTT3=
EXTT4=
EXTT5=
EXTT6=
EXTT7=
EXTT8=
EXTT9=
EXTT10=
EXTT11=
EXTT12=
EXTT13=
EXTT14=
EXTT15=
EXTT16=
EXTT17=
EXTT18=
EXTT19=
PLAYORDER=
